<?xml version="1.0" standalone="no"?>
<!DOCTYPE svg PUBLIC "-//W3C//DTD SVG 20010904//EN"
 "http://www.w3.org/TR/2001/REC-SVG-20010904/DTD/svg10.dtd">
<svg version="1.0" xmlns="http://www.w3.org/2000/svg"
 width="1146.000000pt" height="189.000000pt" viewBox="0 0 1146.000000 189.000000"
 preserveAspectRatio="xMidYMid meet">

<g transform="translate(0.000000,189.000000) scale(0.100000,-0.100000)"
fill="#000000" stroke="none">
<path d="M770 1866 c-342 -73 -615 -315 -718 -636 -34 -106 -45 -179 -45 -290
1 -239 89 -460 251 -632 327 -346 843 -404 1236 -139 72 49 183 153 234 219
22 29 23 34 9 45 -8 7 -69 58 -135 114 l-120 103 -62 -70 c-75 -85 -188 -162
-278 -191 -93 -29 -228 -36 -316 -15 -116 27 -191 71 -281 161 -127 127 -175
239 -175 410 0 167 50 287 170 406 57 57 95 86 151 112 105 50 150 61 264 61
119 0 207 -23 303 -81 60 -37 183 -149 203 -185 5 -10 14 -18 20 -18 12 0 269
220 269 230 0 15 -158 176 -219 222 -84 63 -223 132 -326 159 -102 27 -337 35
-435 15z"/>
<path d="M3415 1781 c-35 -15 -75 -62 -85 -102 -7 -25 -10 -287 -8 -756 3
-702 3 -719 23 -753 36 -61 73 -75 213 -79 l122 -3 0 253 c0 285 6 313 71 360
33 23 39 24 228 24 l194 0 146 -305 c81 -168 150 -311 154 -317 6 -10 57 -13
198 -13 104 0 189 3 189 6 0 4 -76 156 -170 339 -93 183 -170 337 -170 343 0
6 21 21 47 34 61 30 147 109 180 166 61 104 82 300 47 452 -29 130 -117 241
-237 300 -115 56 -155 60 -662 59 -253 0 -469 -4 -480 -8z m910 -310 c133 -60
170 -259 69 -371 -64 -70 -90 -75 -419 -75 l-290 0 -3 233 -2 232 302 0 c271
0 307 -2 343 -19z"/>
<path d="M6185 1771 c-16 -10 -37 -27 -47 -37 -11 -14 -527 -1300 -647 -1617
l-11 -27 187 2 186 3 43 115 c46 122 64 151 108 184 26 20 43 21 267 24 131 2
239 4 239 5 0 1 -24 65 -54 142 l-54 140 -156 3 c-86 1 -156 5 -156 9 0 5 195
536 272 743 13 34 10 40 118 -265 113 -319 400 -1087 409 -1098 4 -4 93 -6
198 -5 l191 3 -199 505 c-110 278 -261 659 -335 848 l-136 342 -196 0 c-174 0
-200 -2 -227 -19z"/>
<path d="M8219 1776 c-115 -32 -218 -119 -266 -224 -52 -112 -40 -266 28 -374
58 -91 110 -126 557 -377 238 -134 439 -253 447 -264 22 -32 18 -63 -11 -86
-26 -21 -37 -21 -476 -21 -430 0 -450 -1 -488 -20 -63 -32 -80 -77 -80 -210
l0 -110 483 0 c265 0 516 5 557 10 292 38 449 318 323 576 -55 114 -88 138
-562 403 -238 134 -442 253 -452 264 -27 30 -24 71 7 96 26 20 37 21 441 21
459 0 460 0 506 64 19 27 22 46 25 149 l4 117 -499 -1 c-369 -1 -510 -4 -544
-13z"/>
<path d="M10015 1781 c-34 -14 -74 -62 -85 -100 -5 -20 -10 -71 -10 -113 l0
-78 268 -2 267 -3 3 -699 2 -698 123 3 c107 4 127 7 160 27 75 47 71 17 77
684 l5 597 30 31 c17 18 39 37 50 43 13 8 98 14 234 17 l214 5 44 130 c24 72
46 138 49 148 5 16 -33 17 -703 16 -389 0 -717 -4 -728 -8z"/>
<path d="M2705 1020 c-180 -4 -204 -7 -240 -27 -81 -43 -144 -138 -145 -215
l0 -38 295 0 295 0 0 145 c0 80 -1 144 -2 143 -2 -1 -93 -4 -203 -8z"/>
</g>
</svg>
